HIERARCHY
ROOT Hips
{
	OFFSET 0.000000 0.000000 0.000000
	CHANNELS 6 Xposition Yposition Zposition Xrotation Yrotation Zrotation
	JOINT LeftUpLeg_virtual
	{
		OFFSET 0.000000 0.000000 0.000000
		CHANNELS 3 Xrotation Yrotation Zrotation
		JOINT LeftUpLeg
		{
			OFFSET 11.394100 -6.187798 -0.413800
			CHANNELS 3 Xrotation Yrotation Zrotation
			JOINT LeftLeg
			{
				OFFSET 0.430247 -32.302673 3.732800
				CHANNELS 3 Xrotation Yrotation Zrotation
				JOINT LeftFoot
				{
					OFFSET -0.430247 -48.264931 -6.423300
					CHANNELS 3 Xrotation Yrotation Zrotation
					JOINT LeftToeBase
					{
						OFFSET 4.230900 -16.068199 23.438400
						CHANNELS 3 Xrotation Yrotation Zrotation
						JOINT LeftToe_End
						{
							OFFSET 4.510700 0.695400 19.974600
							CHANNELS 3 Xrotation Yrotation Zrotation
							End Site
							{
								OFFSET 0 0 0
							}
						}
					}
				}
			}
		}
	}
	JOINT RightUpLeg_virtual
	{
		OFFSET 0.000000 0.000000 0.000000
		CHANNELS 3 Xrotation Yrotation Zrotation
		JOINT RightUpLeg
		{
			OFFSET -11.333700 -6.187798 -0.413800
			CHANNELS 3 Xrotation Yrotation Zrotation
			JOINT RightLeg
			{
				OFFSET -0.430392 -32.302628 3.733000
				CHANNELS 3 Xrotation Yrotation Zrotation
				JOINT RightFoot
				{
					OFFSET 0.430392 -48.264973 -6.423500
					CHANNELS 3 Xrotation Yrotation Zrotation
					JOINT RightToeBase
					{
						OFFSET -4.230900 -16.068199 23.438400
						CHANNELS 3 Xrotation Yrotation Zrotation
						JOINT RightToe_End
						{
							OFFSET -4.510700 0.695400 19.974600
							CHANNELS 3 Xrotation Yrotation Zrotation
							End Site
							{
								OFFSET 0 0 0
							}
						}
					}
				}
			}
		}
	}
	JOINT Spine_virtual
	{
		OFFSET 0.000000 0.000000 0.000000
		CHANNELS 3 Xrotation Yrotation Zrotation
		JOINT Spine
		{
			OFFSET -0.002400 12.777504 0.315300
			CHANNELS 3 Xrotation Yrotation Zrotation
			JOINT Spine1
			{
				OFFSET -0.002067 5.816869 0.032633
				CHANNELS 3 Xrotation Yrotation Zrotation
				JOINT Spine1_split
				{
					OFFSET -0.002067 5.816869 0.032633
					CHANNELS 3 Xrotation Yrotation Zrotation
					JOINT Spine2
					{
						OFFSET -0.002067 5.816869 0.032633
						CHANNELS 3 Xrotation Yrotation Zrotation
						JOINT Neck_virtual
						{
							OFFSET 0.000000 0.000000 0.000000
							CHANNELS 3 Xrotation Yrotation Zrotation
							JOINT Neck
							{
								OFFSET -0.003700 21.199493 -0.826900
								CHANNELS 3 Xrotation Yrotation Zrotation
								JOINT Head
								{
									OFFSET 0.000000 20.442200 4.834800
									CHANNELS 3 Xrotation Yrotation Zrotation
									JOINT HeadTop_End
									{
										OFFSET 0.000000 34.668396 4.968400
										CHANNELS 3 Xrotation Yrotation Zrotation
										End Site
										{
											OFFSET 0 0 0
										}
									}
								}
							}
						}
						JOINT LeftShoulder_virtual
						{
							OFFSET 0.000000 0.000000 0.000000
							CHANNELS 3 Xrotation Yrotation Zrotation
							JOINT LeftShoulder
							{
								OFFSET 3.288150 8.794197 -1.372250
								CHANNELS 3 Xrotation Yrotation Zrotation
								JOINT LeftShoulder_split
								{
									OFFSET 3.288150 8.794197 -1.372250
									CHANNELS 3 Xrotation Yrotation Zrotation
									JOINT LeftArm
									{
										OFFSET 11.953299 -2.279007 -0.146200
										CHANNELS 3 Xrotation Yrotation Zrotation
										JOINT LeftForeArm
										{
											OFFSET 18.448900 0.000000 0.000000
											CHANNELS 3 Xrotation Yrotation Zrotation
											JOINT LeftHand
											{
												OFFSET 29.527798 0.000000 0.000000
												CHANNELS 3 Xrotation Yrotation Zrotation
												End Site
												{
													OFFSET 0 0 0
												}
											}
										}
									}
								}
							}
						}
						JOINT RightShoulder_virtual
						{
							OFFSET 0.000000 0.000000 0.000000
							CHANNELS 3 Xrotation Yrotation Zrotation
							JOINT RightShoulder
							{
								OFFSET -3.249400 8.794197 -1.372250
								CHANNELS 3 Xrotation Yrotation Zrotation
								JOINT RightShoulder_split
								{
									OFFSET -3.249400 8.794197 -1.372250
									CHANNELS 3 Xrotation Yrotation Zrotation
									JOINT RightArm
									{
										OFFSET -11.953299 -2.279007 -0.146200
										CHANNELS 3 Xrotation Yrotation Zrotation
										JOINT RightForeArm
										{
											OFFSET -18.448900 0.000000 0.000000
											CHANNELS 3 Xrotation Yrotation Zrotation
											JOINT RightHand
											{
												OFFSET -29.527802 0.000000 0.000000
												CHANNELS 3 Xrotation Yrotation Zrotation
												End Site
												{
													OFFSET 0 0 0
												}
											}
										}
									}
								}
							}
						}
					}
				}
			}
		}
	}
}
MOTION
Frames: 5
Frame Time: 0.03333333
-5.882483 87.376488 5.926239 0.000000 0.000000 0.000000 -9.531678 23.858015 10.194249 -25.030092 -9.766003 3.031042 43.004285 0.807763 0.671281 -15.545290 -4.554816 -16.268908 0.431310 -0.185723 1.358501 0.000000 0.000000 0.000000 -9.230555 22.689503 10.074480 -20.786979 -27.083353 -29.492340 50.363711 0.182432 0.838123 -32.010935 -3.902591 9.482523 0.833480 0.336921 -1.758367 0.000000 0.000000 0.000000 -8.307891 28.302511 9.937024 17.087171 -0.866630 2.369541 4.027751 1.552378 -1.423189 7.681948 5.509584 1.868833 0.000000 0.000000 0.000000 3.686705 0.386371 -1.222334 -13.616348 -13.743182 -5.875450 -22.925192 -9.862381 -4.337047 0.000000 0.000000 0.000000 4.458626 1.215083 -1.067397 0.701928 -11.804131 -22.554164 -7.314771 -0.911266 -4.156372 -4.725004 6.842688 -24.100297 54.558537 -63.020824 22.434986 0.000000 0.000000 0.000000 4.943752 0.071741 -1.821360 4.628168 -10.855996 -3.434207 -9.823500 0.016835 5.054503 -62.359648 -11.154391 2.500895 -126.384154 15.458745 155.126000 0.000000 0.000000 0.000000 
-6.164638 87.820900 6.494240 0.000000 0.000000 0.000000 -9.361613 23.664478 9.497225 -24.574502 -10.809354 3.589572 42.403566 0.580153 0.850271 -15.503693 -4.105701 -16.983800 0.694857 -0.038334 1.216662 0.000000 0.000000 0.000000 -8.863928 22.861328 9.419948 -19.177368 -27.147714 -27.475194 49.426869 -0.103331 0.871975 -32.245385 -4.624009 8.750989 0.770532 0.330958 -1.714874 0.000000 0.000000 0.000000 -8.210348 28.557965 9.085611 16.800918 -1.592012 2.209440 3.593298 0.120724 -1.601415 6.376790 3.032354 2.783351 0.000000 0.000000 0.000000 3.482622 -1.005419 -1.099104 -14.268239 -10.824988 -7.446679 -23.233146 -8.314034 -2.979327 0.000000 0.000000 0.000000 4.124237 -0.228351 -0.947807 0.976246 -9.518147 -23.053628 -8.245150 -0.514178 -4.152011 -2.950048 11.348680 -25.199795 59.173009 -63.972733 27.139605 0.000000 0.000000 0.000000 4.418656 -1.279397 -1.640453 5.129954 -12.918315 3.309108 -8.603638 0.264122 5.300174 -63.888770 -23.858974 -0.051109 -120.920617 10.669420 151.589410 0.000000 0.000000 0.000000 
-6.393080 88.326599 6.931896 0.000000 0.000000 0.000000 -8.846921 22.609967 8.583047 -24.033788 -11.220332 4.494406 41.978824 0.570812 0.863757 -15.739440 -3.310998 -17.348831 0.695299 0.114639 1.031742 0.000000 0.000000 0.000000 -8.254029 22.179614 8.557779 -18.034952 -26.395830 -25.268474 47.997355 -0.238651 0.837224 -31.873570 -5.360685 8.104616 0.801721 0.345497 -1.717703 0.000000 0.000000 0.000000 -7.890380 28.131321 8.045127 16.746739 -2.003821 2.157016 3.241867 -1.119631 -1.609120 3.569826 -0.826339 2.515965 0.000000 0.000000 0.000000 3.629724 -2.187996 -0.850840 -14.691698 -8.678652 -6.952949 -23.641887 -6.533973 -2.028382 0.000000 0.000000 0.000000 4.034155 -1.443362 -0.757699 1.206707 -8.008997 -22.630276 -9.023698 -0.251945 -3.933138 -1.408793 14.179202 -26.527661 59.779865 -62.540463 27.560098 0.000000 0.000000 0.000000 3.932603 -2.457144 -1.366710 5.605733 -13.614656 7.909412 -7.186832 -0.523933 5.205335 -68.368657 -28.912273 -0.508472 -116.508848 7.602334 148.726030 0.000000 0.000000 0.000000 
-6.504315 88.789940 7.083256 0.000000 0.000000 0.000000 -8.082642 20.831864 7.581431 -23.494830 -10.954086 5.642111 41.780896 0.738816 0.761823 -16.213532 -2.307074 -17.292422 0.475327 0.255190 0.851796 0.000000 0.000000 0.000000 -7.454305 20.656070 7.598732 -17.615065 -24.975430 -23.161004 46.333640 -0.108292 0.706516 -30.813924 -5.952597 7.846866 0.628193 0.360344 -1.766548 0.000000 0.000000 0.000000 -7.332944 26.763357 6.946736 16.962758 -2.063422 2.208662 3.014428 -1.946490 -1.550114 1.079829 -3.544668 1.154875 0.000000 0.000000 0.000000 4.050199 -2.930552 -0.657422 -14.815601 -7.281590 -4.991701 -24.315620 -4.709963 -1.449531 0.000000 0.000000 0.000000 4.118079 -2.191341 -0.625143 1.327614 -7.159408 -21.362928 -9.272531 -0.188175 -3.860113 -0.643678 15.546351 -27.572149 57.908973 -60.270641 25.580194 0.000000 0.000000 0.000000 3.498911 -3.268820 -1.170549 5.767461 -13.638181 9.991955 -5.343157 -0.850478 4.730692 -74.146327 -28.132868 -0.062866 -115.302869 5.534293 148.297600 0.000000 0.000000 0.000000 
-6.474113 89.215210 6.957012 0.000000 0.000000 0.000000 -7.151000 18.602305 6.593150 -23.065636 -10.113949 6.894752 41.708315 0.895687 0.591946 -16.765014 -1.345805 -16.975609 0.238870 0.365673 0.703949 0.000000 0.000000 0.000000 -6.594405 18.428626 6.636543 -17.822414 -23.173695 -21.344643 44.719199 0.191283 0.519899 -29.205223 -6.278045 7.875897 0.241714 0.352698 -1.789410 0.000000 0.000000 0.000000 -6.621738 24.569022 5.995152 17.429844 -1.866900 2.320275 2.861931 -2.210618 -1.509669 0.105372 -3.920735 0.049385 0.000000 0.000000 0.000000 4.527512 -3.094736 -0.669399 -14.529411 -6.548593 -2.503985 -25.277775 -3.064860 -1.122829 0.000000 0.000000 0.000000 4.300455 -2.363507 -0.643663 1.346023 -6.720433 -19.812482 -8.923011 -0.239446 -3.725324 -0.454541 15.980100 -28.242848 56.009317 -58.730229 23.856193 0.000000 0.000000 0.000000 3.270447 -3.577056 -1.135578 5.742839 -13.455210 9.854617 -3.750212 -0.539559 4.472992 -79.210360 -24.081852 0.605182 -117.427358 4.341581 150.515950 0.000000 0.000000 0.000000 
